<svg width="86" height="90" viewBox="0 0 86 90" fill="none" xmlns="http://www.w3.org/2000/svg">
<rect width="86" height="90" rx="9" fill="white"/>
<circle cx="73" cy="32" r="4.5" fill="white" stroke="#1C2145"/>
<circle cx="73" cy="32" r="3" fill="#1C2145"/>
<circle cx="76" cy="10" r="4.5" stroke="black"/>
<circle cx="10" cy="10" r="4.5" stroke="black"/>
<circle cx="76" cy="80" r="4.5" stroke="black"/>
<circle cx="10" cy="80" r="4.5" stroke="black"/>
<rect x="4.11649" y="30.1421" width="13.4211" height="13.4211" transform="rotate(-45 4.11649 30.1421)" fill="#1C2145"/>
<rect x="14.1649" y="21.2103" width="0.789474" height="0.789474" transform="rotate(-45 14.1649 21.2103)" fill="#1C2145"/>
<rect x="15.2813" y="22.3268" width="0.789474" height="0.789474" transform="rotate(-45 15.2813 22.3268)" fill="#1C2145"/>
<rect x="16.3978" y="23.4432" width="0.789474" height="0.789474" transform="rotate(-45 16.3978 23.4432)" fill="#1C2145"/>
<rect x="17.5143" y="24.5597" width="0.789474" height="0.789474" transform="rotate(-45 17.5143 24.5597)" fill="#1C2145"/>
<rect x="18.6308" y="25.6762" width="0.789474" height="0.789474" transform="rotate(-45 18.6308 25.6762)" fill="#1C2145"/>
<rect x="19.7473" y="26.7927" width="0.789474" height="0.789474" transform="rotate(-45 19.7473 26.7927)" fill="#1C2145"/>
<rect x="20.8638" y="27.9092" width="0.789474" height="0.789474" transform="rotate(-45 20.8638 27.9092)" fill="#1C2145"/>
<rect x="21.9802" y="29.0257" width="0.789474" height="0.789474" transform="rotate(-45 21.9802 29.0257)" fill="#1C2145"/>
<rect x="4.67471" y="29.5839" width="0.789474" height="0.789474" transform="rotate(-135 4.67471 29.5839)" fill="#1C2145"/>
<rect x="5.7912" y="28.4674" width="0.789474" height="0.789474" transform="rotate(-135 5.7912 28.4674)" fill="#1C2145"/>
<rect x="6.90768" y="27.3509" width="0.789474" height="0.789474" transform="rotate(-135 6.90768 27.3509)" fill="#1C2145"/>
<rect x="8.02417" y="26.2344" width="0.789474" height="0.789474" transform="rotate(-135 8.02417 26.2344)" fill="#1C2145"/>
<rect x="9.14066" y="25.118" width="0.789474" height="0.789474" transform="rotate(-135 9.14066 25.118)" fill="#1C2145"/>
<rect x="10.2571" y="24.0015" width="0.789474" height="0.789474" transform="rotate(-135 10.2571 24.0015)" fill="#1C2145"/>
<rect x="11.3736" y="22.885" width="0.789474" height="0.789474" transform="rotate(-135 11.3736 22.885)" fill="#1C2145"/>
<rect x="12.4901" y="21.7685" width="0.789474" height="0.789474" transform="rotate(-135 12.4901 21.7685)" fill="#1C2145"/>
<rect x="14.7231" y="39.6322" width="0.789474" height="0.789474" transform="rotate(-135 14.7231 39.6322)" fill="#1C2145"/>
<rect x="15.8396" y="38.5158" width="0.789474" height="0.789474" transform="rotate(-135 15.8396 38.5158)" fill="#1C2145"/>
<rect x="16.9561" y="37.3993" width="0.789474" height="0.789474" transform="rotate(-135 16.9561 37.3993)" fill="#1C2145"/>
<rect x="18.0725" y="36.2828" width="0.789474" height="0.789474" transform="rotate(-135 18.0725 36.2828)" fill="#1C2145"/>
<rect x="19.189" y="35.1663" width="0.789474" height="0.789474" transform="rotate(-135 19.189 35.1663)" fill="#1C2145"/>
<rect x="20.3055" y="34.0498" width="0.789474" height="0.789474" transform="rotate(-135 20.3055 34.0498)" fill="#1C2145"/>
<rect x="21.422" y="32.9333" width="0.789474" height="0.789474" transform="rotate(-135 21.422 32.9333)" fill="#1C2145"/>
<rect x="22.5385" y="31.8169" width="0.789474" height="0.789474" transform="rotate(-135 22.5385 31.8169)" fill="#1C2145"/>
<rect x="4.11649" y="31.2586" width="0.789474" height="0.789474" transform="rotate(-45 4.11649 31.2586)" fill="#1C2145"/>
<rect x="5.23297" y="32.3751" width="0.789474" height="0.789474" transform="rotate(-45 5.23297 32.3751)" fill="#1C2145"/>
<rect x="6.34946" y="33.4916" width="0.789474" height="0.789474" transform="rotate(-45 6.34946 33.4916)" fill="#1C2145"/>
<rect x="7.46594" y="34.6081" width="0.789474" height="0.789474" transform="rotate(-45 7.46594 34.6081)" fill="#1C2145"/>
<rect x="8.58243" y="35.7245" width="0.789474" height="0.789474" transform="rotate(-45 8.58243 35.7245)" fill="#1C2145"/>
<rect x="9.69891" y="36.841" width="0.789474" height="0.789474" transform="rotate(-45 9.69891 36.841)" fill="#1C2145"/>
<rect x="10.8154" y="37.9575" width="0.789474" height="0.789474" transform="rotate(-45 10.8154 37.9575)" fill="#1C2145"/>
<rect x="11.9319" y="39.074" width="0.789474" height="0.789474" transform="rotate(-45 11.9319 39.074)" fill="#1C2145"/>
<rect x="33.3158" y="34.3158" width="22.3684" height="22.3684" fill="#1C2145"/>
<rect x="33.8158" y="34.8158" width="21.3684" height="21.3684" stroke="black" stroke-opacity="0.2"/>
<rect x="55.6842" y="35.6316" width="1.31579" height="1.31579" fill="#1C2145"/>
<rect x="56.0131" y="35.9606" width="0.657895" height="0.657895" stroke="black" stroke-opacity="0.2" stroke-width="0.657895"/>
<rect x="55.6842" y="38.2631" width="1.31579" height="1.31579" fill="#1C2145"/>
<rect x="56.0131" y="38.5921" width="0.657895" height="0.657895" stroke="black" stroke-opacity="0.2" stroke-width="0.657895"/>
<rect x="55.6842" y="40.8947" width="1.31579" height="1.31579" fill="#1C2145"/>
<rect x="56.0131" y="41.2237" width="0.657895" height="0.657895" stroke="black" stroke-opacity="0.2" stroke-width="0.657895"/>
<rect x="55.6842" y="43.5264" width="1.31579" height="1.31579" fill="#1C2145"/>
<rect x="56.0131" y="43.8553" width="0.657895" height="0.657895" stroke="black" stroke-opacity="0.2" stroke-width="0.657895"/>
<rect x="55.6842" y="46.1579" width="1.31579" height="1.31579" fill="#1C2145"/>
<rect x="56.0131" y="46.4868" width="0.657895" height="0.657895" stroke="black" stroke-opacity="0.2" stroke-width="0.657895"/>
<rect x="55.6842" y="48.7895" width="1.31579" height="1.31579" fill="#1C2145"/>
<rect x="56.0131" y="49.1184" width="0.657895" height="0.657895" stroke="black" stroke-opacity="0.2" stroke-width="0.657895"/>
<rect x="55.6842" y="51.421" width="1.31579" height="1.31579" fill="#1C2145"/>
<rect x="56.0131" y="51.75" width="0.657895" height="0.657895" stroke="black" stroke-opacity="0.2" stroke-width="0.657895"/>
<rect x="55.6842" y="54.0526" width="1.31579" height="1.31579" fill="#1C2145"/>
<rect x="56.0131" y="54.3816" width="0.657895" height="0.657895" stroke="black" stroke-opacity="0.2" stroke-width="0.657895"/>
<rect x="34.6316" y="34.3158" width="1.31579" height="1.31579" transform="rotate(-90 34.6316 34.3158)" fill="#1C2145"/>
<rect x="34.9605" y="33.9868" width="0.657895" height="0.657895" transform="rotate(-90 34.9605 33.9868)" stroke="black" stroke-opacity="0.2" stroke-width="0.657895"/>
<rect x="37.2632" y="34.3158" width="1.31579" height="1.31579" transform="rotate(-90 37.2632 34.3158)" fill="#1C2145"/>
<rect x="37.5921" y="33.9868" width="0.657895" height="0.657895" transform="rotate(-90 37.5921 33.9868)" stroke="black" stroke-opacity="0.2" stroke-width="0.657895"/>
<rect x="39.8947" y="34.3158" width="1.31579" height="1.31579" transform="rotate(-90 39.8947 34.3158)" fill="#1C2145"/>
<rect x="40.2236" y="33.9868" width="0.657895" height="0.657895" transform="rotate(-90 40.2236 33.9868)" stroke="black" stroke-opacity="0.2" stroke-width="0.657895"/>
<rect x="42.5263" y="34.3158" width="1.31579" height="1.31579" transform="rotate(-90 42.5263 34.3158)" fill="#1C2145"/>
<rect x="42.8553" y="33.9868" width="0.657895" height="0.657895" transform="rotate(-90 42.8553 33.9868)" stroke="black" stroke-opacity="0.2" stroke-width="0.657895"/>
<rect x="45.1579" y="34.3158" width="1.31579" height="1.31579" transform="rotate(-90 45.1579 34.3158)" fill="#1C2145"/>
<rect x="45.4868" y="33.9868" width="0.657895" height="0.657895" transform="rotate(-90 45.4868 33.9868)" stroke="black" stroke-opacity="0.2" stroke-width="0.657895"/>
<rect x="47.7895" y="34.3158" width="1.31579" height="1.31579" transform="rotate(-90 47.7895 34.3158)" fill="#1C2145"/>
<rect x="48.1184" y="33.9868" width="0.657895" height="0.657895" transform="rotate(-90 48.1184 33.9868)" stroke="black" stroke-opacity="0.2" stroke-width="0.657895"/>
<rect x="50.421" y="34.3158" width="1.31579" height="1.31579" transform="rotate(-90 50.421 34.3158)" fill="#1C2145"/>
<rect x="50.75" y="33.9868" width="0.657895" height="0.657895" transform="rotate(-90 50.75 33.9868)" stroke="black" stroke-opacity="0.2" stroke-width="0.657895"/>
<rect x="53.0526" y="34.3158" width="1.31579" height="1.31579" transform="rotate(-90 53.0526 34.3158)" fill="#1C2145"/>
<rect x="53.3816" y="33.9868" width="0.657895" height="0.657895" transform="rotate(-90 53.3816 33.9868)" stroke="black" stroke-opacity="0.2" stroke-width="0.657895"/>
<rect x="34.6316" y="58" width="1.31579" height="1.31579" transform="rotate(-90 34.6316 58)" fill="#1C2145"/>
<rect x="34.9605" y="57.6711" width="0.657895" height="0.657895" transform="rotate(-90 34.9605 57.6711)" stroke="black" stroke-opacity="0.2" stroke-width="0.657895"/>
<rect x="37.2632" y="58" width="1.31579" height="1.31579" transform="rotate(-90 37.2632 58)" fill="#1C2145"/>
<rect x="37.5921" y="57.6711" width="0.657895" height="0.657895" transform="rotate(-90 37.5921 57.6711)" stroke="black" stroke-opacity="0.2" stroke-width="0.657895"/>
<rect x="39.8947" y="58" width="1.31579" height="1.31579" transform="rotate(-90 39.8947 58)" fill="#1C2145"/>
<rect x="40.2236" y="57.6711" width="0.657895" height="0.657895" transform="rotate(-90 40.2236 57.6711)" stroke="black" stroke-opacity="0.2" stroke-width="0.657895"/>
<rect x="42.5263" y="58" width="1.31579" height="1.31579" transform="rotate(-90 42.5263 58)" fill="#1C2145"/>
<rect x="42.8553" y="57.6711" width="0.657895" height="0.657895" transform="rotate(-90 42.8553 57.6711)" stroke="black" stroke-opacity="0.2" stroke-width="0.657895"/>
<rect x="45.1579" y="58" width="1.31579" height="1.31579" transform="rotate(-90 45.1579 58)" fill="#1C2145"/>
<rect x="45.4868" y="57.6711" width="0.657895" height="0.657895" transform="rotate(-90 45.4868 57.6711)" stroke="black" stroke-opacity="0.2" stroke-width="0.657895"/>
<rect x="47.7895" y="58" width="1.31579" height="1.31579" transform="rotate(-90 47.7895 58)" fill="#1C2145"/>
<rect x="48.1184" y="57.6711" width="0.657895" height="0.657895" transform="rotate(-90 48.1184 57.6711)" stroke="black" stroke-opacity="0.2" stroke-width="0.657895"/>
<rect x="50.421" y="58" width="1.31579" height="1.31579" transform="rotate(-90 50.421 58)" fill="#1C2145"/>
<rect x="50.75" y="57.6711" width="0.657895" height="0.657895" transform="rotate(-90 50.75 57.6711)" stroke="black" stroke-opacity="0.2" stroke-width="0.657895"/>
<rect x="53.0526" y="58" width="1.31579" height="1.31579" transform="rotate(-90 53.0526 58)" fill="#1C2145"/>
<rect x="53.3816" y="57.6711" width="0.657895" height="0.657895" transform="rotate(-90 53.3816 57.6711)" stroke="black" stroke-opacity="0.2" stroke-width="0.657895"/>
<rect x="32" y="35.6316" width="1.31579" height="1.31579" fill="#1C2145"/>
<rect x="32.3289" y="35.9606" width="0.657895" height="0.657895" stroke="black" stroke-opacity="0.2" stroke-width="0.657895"/>
<rect x="32" y="38.2631" width="1.31579" height="1.31579" fill="#1C2145"/>
<rect x="32.3289" y="38.5921" width="0.657895" height="0.657895" stroke="black" stroke-opacity="0.2" stroke-width="0.657895"/>
<rect x="32" y="40.8947" width="1.31579" height="1.31579" fill="#1C2145"/>
<rect x="32.3289" y="41.2237" width="0.657895" height="0.657895" stroke="black" stroke-opacity="0.2" stroke-width="0.657895"/>
<rect x="32" y="43.5264" width="1.31579" height="1.31579" fill="#1C2145"/>
<rect x="32.3289" y="43.8553" width="0.657895" height="0.657895" stroke="black" stroke-opacity="0.2" stroke-width="0.657895"/>
<rect x="32" y="46.1579" width="1.31579" height="1.31579" fill="#1C2145"/>
<rect x="32.3289" y="46.4868" width="0.657895" height="0.657895" stroke="black" stroke-opacity="0.2" stroke-width="0.657895"/>
<rect x="32" y="48.7895" width="1.31579" height="1.31579" fill="#1C2145"/>
<rect x="32.3289" y="49.1184" width="0.657895" height="0.657895" stroke="black" stroke-opacity="0.2" stroke-width="0.657895"/>
<rect x="32" y="51.421" width="1.31579" height="1.31579" fill="#1C2145"/>
<rect x="32.3289" y="51.75" width="0.657895" height="0.657895" stroke="black" stroke-opacity="0.2" stroke-width="0.657895"/>
<rect x="32" y="54.0526" width="1.31579" height="1.31579" fill="#1C2145"/>
<rect x="32.3289" y="54.3816" width="0.657895" height="0.657895" stroke="black" stroke-opacity="0.2" stroke-width="0.657895"/>
<rect x="66" y="44" width="2" height="6" rx="1" fill="#1C2145"/>
<rect x="66.5" y="46" width="1" height="2" rx="0.5" fill="#F1B46D"/>
<rect x="62" y="44" width="2" height="6" rx="1" fill="#1C2145"/>
<rect x="62.5" y="46" width="1" height="2" rx="0.5" fill="#F1B46D"/>
<rect x="46" y="19" width="2" height="6" rx="1" fill="#1C2145"/>
<rect x="46.5" y="21" width="1" height="2" rx="0.5" fill="#F1B46D"/>
<rect x="42" y="19" width="2" height="6" rx="1" fill="#1C2145"/>
<rect x="42.5" y="21" width="1" height="2" rx="0.5" fill="#F1B46D"/>
<rect x="51" width="2" height="6" rx="1" fill="#1C2145"/>
<rect x="46" width="2" height="6" rx="1" fill="#1C2145"/>
<rect x="41" width="2" height="6" rx="1" fill="#1C2145"/>
<rect x="36" width="2" height="6" rx="1" fill="#1C2145"/>
<path d="M12 52C12 50.8954 11.1046 50 10 50H0L0 70H10C11.1046 70 12 69.1046 12 68L12 52Z" fill="#1C2145"/>
<path d="M81 52C81 50.8954 81.8954 50 83 50H86V70H83C81.8954 70 81 69.1046 81 68V52Z" fill="#1C2145"/>
<path d="M33 15C33 13.3805 32.4385 11.8111 31.4111 10.5593C30.3837 9.30738 28.954 8.45046 27.3656 8.13451C25.7773 7.81857 24.1285 8.06314 22.7002 8.82656C21.272 9.58998 20.1526 10.825 19.5328 12.3212C18.9131 13.8174 18.8313 15.4823 19.3014 17.032C19.7715 18.5818 20.7645 19.9206 22.111 20.8203C23.4576 21.72 25.0744 22.125 26.6861 21.9663C28.2978 21.8076 29.8046 21.0949 30.9497 19.9498" stroke="#1C2145" stroke-linecap="round"/>
<circle cx="26" cy="15" r="4.5" fill="white" stroke="#1C2145"/>
<circle cx="26" cy="15" r="2.5" fill="white" stroke="#1C2145"/>
<path d="M29.7375 75.11C29.2389 75.11 28.7879 75.0037 28.3845 74.791C27.9885 74.571 27.6732 74.2593 27.4385 73.856C27.2039 73.4453 27.0865 72.965 27.0865 72.415C27.0865 71.8943 27.1929 71.4397 27.4055 71.051C27.6255 70.655 27.9299 70.3507 28.3185 70.138C28.7145 69.9253 29.1692 69.819 29.6825 69.819C30.0712 69.819 30.4049 69.8703 30.6835 69.973C30.9695 70.0683 31.1932 70.1893 31.3545 70.336L30.8265 71.293C30.5185 70.985 30.1702 70.831 29.7815 70.831C29.3122 70.831 28.9529 70.974 28.7035 71.26C28.4615 71.546 28.3405 71.9273 28.3405 72.404C28.3405 72.9467 28.4652 73.3683 28.7145 73.669C28.9712 73.9697 29.3269 74.12 29.7815 74.12C30.0089 74.12 30.2289 74.087 30.4415 74.021C30.6615 73.955 30.8302 73.878 30.9475 73.79L31.3765 74.626C31.2152 74.7507 30.9879 74.8643 30.6945 74.967C30.4085 75.0623 30.0895 75.11 29.7375 75.11ZM32.5626 66.915H33.7176V69.951L33.6736 70.886C33.8129 70.578 34.0366 70.325 34.3446 70.127C34.6526 69.9217 35.0119 69.819 35.4226 69.819C35.9432 69.819 36.3429 69.929 36.6216 70.149C36.9002 70.3617 37.0872 70.6623 37.1826 71.051C37.2779 71.4397 37.3256 71.9457 37.3256 72.569V75H36.1486V72.558C36.1486 72.1327 36.1229 71.799 36.0716 71.557C36.0276 71.315 35.9322 71.1317 35.7856 71.007C35.6462 70.8823 35.4409 70.82 35.1696 70.82C34.9496 70.82 34.7259 70.886 34.4986 71.018C34.2786 71.15 34.0952 71.3443 33.9486 71.601C33.8019 71.8503 33.7286 72.1473 33.7286 72.492V75H32.5626V66.915ZM40.5837 75.11C39.887 75.11 39.4067 74.9047 39.1427 74.494C38.886 74.0833 38.7577 73.5113 38.7577 72.778V69.951H39.9457V72.481C39.9457 72.899 39.9677 73.2253 40.0117 73.46C40.063 73.6873 40.1584 73.856 40.2977 73.966C40.4444 74.076 40.6607 74.131 40.9467 74.131C41.152 74.131 41.35 74.0723 41.5407 73.955C41.7314 73.8377 41.8854 73.68 42.0027 73.482C42.1274 73.2767 42.1897 73.053 42.1897 72.811V69.951H43.3667V75H42.3987L42.2667 74.263C42.0834 74.549 41.8524 74.7617 41.5737 74.901C41.3024 75.0403 40.9724 75.11 40.5837 75.11ZM49.512 75H48.115L47.092 73.35L46.806 72.789L46.146 73.504V75H45.002V66.915H46.135V71.348L46.113 72.206L48.038 69.951H49.501L47.598 72.063L49.512 75ZM52.6908 75.11C52.2361 75.11 51.8144 75.0037 51.4258 74.791C51.0444 74.571 50.7364 74.263 50.5018 73.867C50.2744 73.4637 50.1608 72.9943 50.1608 72.459C50.1608 71.931 50.2598 71.469 50.4578 71.073C50.6631 70.677 50.9528 70.369 51.3268 70.149C51.7008 69.929 52.1408 69.819 52.6468 69.819C52.9401 69.819 53.2151 69.8703 53.4718 69.973C53.7284 70.0757 53.9448 70.204 54.1208 70.358C54.2968 70.5047 54.4141 70.6513 54.4728 70.798L54.4948 69.951H55.6278V75H54.5058L54.4838 74.109C54.3591 74.373 54.1318 74.6077 53.8018 74.813C53.4718 75.011 53.1014 75.11 52.6908 75.11ZM52.8888 74.12C53.3068 74.12 53.6588 73.977 53.9448 73.691C54.2308 73.3977 54.3738 73.0163 54.3738 72.547V72.47C54.3738 72.1547 54.3078 71.8723 54.1758 71.623C54.0438 71.3737 53.8641 71.1793 53.6368 71.04C53.4094 70.9007 53.1601 70.831 52.8888 70.831C52.4194 70.831 52.0564 70.985 51.7998 71.293C51.5431 71.5937 51.4148 71.986 51.4148 72.47C51.4148 72.9613 51.5394 73.361 51.7888 73.669C52.0454 73.9697 52.4121 74.12 52.8888 74.12ZM57.1923 69.951H58.3803V70.941C58.4977 70.6037 58.6883 70.3323 58.9523 70.127C59.2163 69.9217 59.517 69.819 59.8543 69.819C60.089 69.819 60.2503 69.841 60.3383 69.885L60.1733 71.084C60.1073 71.04 59.9643 71.018 59.7443 71.018C59.3997 71.018 59.0843 71.128 58.7983 71.348C58.5197 71.568 58.3803 71.92 58.3803 72.404V75H57.1923V69.951Z" fill="#4A1EC6"/>
<path d="M61 68C61 68.5523 60.5523 69 60 69C59.4477 69 59 68.5523 59 68C59 67.4477 59.4477 67 60 67C60.5523 67 61 67.4477 61 68Z" fill="#4A1EC6"/>
<path d="M62.9544 80H61.9384L61.1944 78.8L60.9864 78.392L60.5064 78.912V80H59.6744V74.12H60.4984V77.344L60.4824 77.968L61.8824 76.328H62.9464L61.5624 77.864L62.9544 80ZM65.4262 81.92C65.1542 81.92 64.8849 81.8827 64.6182 81.808C64.3569 81.7333 64.1702 81.664 64.0582 81.6L64.2502 80.8C64.6022 81.0293 64.9862 81.144 65.4022 81.144C65.7222 81.144 65.9916 81.0667 66.2102 80.912C66.4289 80.7573 66.5409 80.456 66.5462 80.008V79.352C66.4342 79.56 66.2529 79.7333 66.0022 79.872C65.7516 80.0107 65.4742 80.08 65.1702 80.08C64.8502 80.08 64.5569 80.0027 64.2902 79.848C64.0236 79.688 63.8129 79.4613 63.6582 79.168C63.5036 78.8747 63.4262 78.5333 63.4262 78.144C63.4262 77.7707 63.4982 77.44 63.6422 77.152C63.7916 76.8587 64.0022 76.632 64.2742 76.472C64.5462 76.312 64.8636 76.232 65.2262 76.232C65.4396 76.232 65.6396 76.2693 65.8262 76.344C66.0129 76.4187 66.1702 76.512 66.2982 76.624C66.4316 76.7307 66.5196 76.8373 66.5622 76.944L66.5782 76.328H67.3942V79.976C67.3942 80.6 67.2342 81.08 66.9142 81.416C66.5942 81.752 66.0982 81.92 65.4262 81.92ZM65.4102 79.352C65.7142 79.352 65.9702 79.248 66.1782 79.04C66.3862 78.8267 66.4902 78.5493 66.4902 78.208V78.152C66.4902 77.9227 66.4422 77.7173 66.3462 77.536C66.2502 77.3547 66.1196 77.2133 65.9542 77.112C65.7889 77.0107 65.6076 76.96 65.4102 76.96C65.0689 76.96 64.8049 77.072 64.6182 77.296C64.4316 77.5147 64.3382 77.8 64.3382 78.152C64.3382 78.5093 64.4289 78.8 64.6102 79.024C64.7969 79.2427 65.0636 79.352 65.4102 79.352Z" fill="black"/>
</svg>
