<svg width="86" height="90" viewBox="0 0 86 90" fill="none" xmlns="http://www.w3.org/2000/svg">
<rect width="86" height="90" rx="9" fill="white"/>
<circle cx="73" cy="32" r="4.5" fill="white" stroke="#1C2145"/>
<circle cx="73" cy="32" r="3" fill="#1C2145"/>
<circle cx="76" cy="10" r="4.5" stroke="black"/>
<circle cx="10" cy="10" r="4.5" stroke="black"/>
<circle cx="76" cy="80" r="4.5" stroke="black"/>
<circle cx="10" cy="80" r="4.5" stroke="black"/>
<rect x="4.11649" y="30.1421" width="13.4211" height="13.4211" transform="rotate(-45 4.11649 30.1421)" fill="#1C2145"/>
<rect x="14.1649" y="21.2103" width="0.789474" height="0.789474" transform="rotate(-45 14.1649 21.2103)" fill="#1C2145"/>
<rect x="15.2813" y="22.3268" width="0.789474" height="0.789474" transform="rotate(-45 15.2813 22.3268)" fill="#1C2145"/>
<rect x="16.3978" y="23.4432" width="0.789474" height="0.789474" transform="rotate(-45 16.3978 23.4432)" fill="#1C2145"/>
<rect x="17.5143" y="24.5597" width="0.789474" height="0.789474" transform="rotate(-45 17.5143 24.5597)" fill="#1C2145"/>
<rect x="18.6308" y="25.6762" width="0.789474" height="0.789474" transform="rotate(-45 18.6308 25.6762)" fill="#1C2145"/>
<rect x="19.7473" y="26.7927" width="0.789474" height="0.789474" transform="rotate(-45 19.7473 26.7927)" fill="#1C2145"/>
<rect x="20.8638" y="27.9092" width="0.789474" height="0.789474" transform="rotate(-45 20.8638 27.9092)" fill="#1C2145"/>
<rect x="21.9802" y="29.0257" width="0.789474" height="0.789474" transform="rotate(-45 21.9802 29.0257)" fill="#1C2145"/>
<rect x="4.67471" y="29.5839" width="0.789474" height="0.789474" transform="rotate(-135 4.67471 29.5839)" fill="#1C2145"/>
<rect x="5.7912" y="28.4674" width="0.789474" height="0.789474" transform="rotate(-135 5.7912 28.4674)" fill="#1C2145"/>
<rect x="6.90768" y="27.3509" width="0.789474" height="0.789474" transform="rotate(-135 6.90768 27.3509)" fill="#1C2145"/>
<rect x="8.02417" y="26.2344" width="0.789474" height="0.789474" transform="rotate(-135 8.02417 26.2344)" fill="#1C2145"/>
<rect x="9.14066" y="25.118" width="0.789474" height="0.789474" transform="rotate(-135 9.14066 25.118)" fill="#1C2145"/>
<rect x="10.2571" y="24.0015" width="0.789474" height="0.789474" transform="rotate(-135 10.2571 24.0015)" fill="#1C2145"/>
<rect x="11.3736" y="22.885" width="0.789474" height="0.789474" transform="rotate(-135 11.3736 22.885)" fill="#1C2145"/>
<rect x="12.4901" y="21.7685" width="0.789474" height="0.789474" transform="rotate(-135 12.4901 21.7685)" fill="#1C2145"/>
<rect x="14.7231" y="39.6322" width="0.789474" height="0.789474" transform="rotate(-135 14.7231 39.6322)" fill="#1C2145"/>
<rect x="15.8396" y="38.5158" width="0.789474" height="0.789474" transform="rotate(-135 15.8396 38.5158)" fill="#1C2145"/>
<rect x="16.9561" y="37.3993" width="0.789474" height="0.789474" transform="rotate(-135 16.9561 37.3993)" fill="#1C2145"/>
<rect x="18.0725" y="36.2828" width="0.789474" height="0.789474" transform="rotate(-135 18.0725 36.2828)" fill="#1C2145"/>
<rect x="19.189" y="35.1663" width="0.789474" height="0.789474" transform="rotate(-135 19.189 35.1663)" fill="#1C2145"/>
<rect x="20.3055" y="34.0498" width="0.789474" height="0.789474" transform="rotate(-135 20.3055 34.0498)" fill="#1C2145"/>
<rect x="21.422" y="32.9333" width="0.789474" height="0.789474" transform="rotate(-135 21.422 32.9333)" fill="#1C2145"/>
<rect x="22.5385" y="31.8169" width="0.789474" height="0.789474" transform="rotate(-135 22.5385 31.8169)" fill="#1C2145"/>
<rect x="4.11649" y="31.2586" width="0.789474" height="0.789474" transform="rotate(-45 4.11649 31.2586)" fill="#1C2145"/>
<rect x="5.23297" y="32.3751" width="0.789474" height="0.789474" transform="rotate(-45 5.23297 32.3751)" fill="#1C2145"/>
<rect x="6.34946" y="33.4916" width="0.789474" height="0.789474" transform="rotate(-45 6.34946 33.4916)" fill="#1C2145"/>
<rect x="7.46594" y="34.6081" width="0.789474" height="0.789474" transform="rotate(-45 7.46594 34.6081)" fill="#1C2145"/>
<rect x="8.58243" y="35.7245" width="0.789474" height="0.789474" transform="rotate(-45 8.58243 35.7245)" fill="#1C2145"/>
<rect x="9.69891" y="36.841" width="0.789474" height="0.789474" transform="rotate(-45 9.69891 36.841)" fill="#1C2145"/>
<rect x="10.8154" y="37.9575" width="0.789474" height="0.789474" transform="rotate(-45 10.8154 37.9575)" fill="#1C2145"/>
<rect x="11.9319" y="39.074" width="0.789474" height="0.789474" transform="rotate(-45 11.9319 39.074)" fill="#1C2145"/>
<rect x="33.3158" y="34.3158" width="22.3684" height="22.3684" fill="#1C2145"/>
<rect x="33.8158" y="34.8158" width="21.3684" height="21.3684" stroke="black" stroke-opacity="0.2"/>
<rect x="55.6842" y="35.6316" width="1.31579" height="1.31579" fill="#1C2145"/>
<rect x="56.0131" y="35.9606" width="0.657895" height="0.657895" stroke="black" stroke-opacity="0.2" stroke-width="0.657895"/>
<rect x="55.6842" y="38.2631" width="1.31579" height="1.31579" fill="#1C2145"/>
<rect x="56.0131" y="38.5921" width="0.657895" height="0.657895" stroke="black" stroke-opacity="0.2" stroke-width="0.657895"/>
<rect x="55.6842" y="40.8947" width="1.31579" height="1.31579" fill="#1C2145"/>
<rect x="56.0131" y="41.2237" width="0.657895" height="0.657895" stroke="black" stroke-opacity="0.2" stroke-width="0.657895"/>
<rect x="55.6842" y="43.5264" width="1.31579" height="1.31579" fill="#1C2145"/>
<rect x="56.0131" y="43.8553" width="0.657895" height="0.657895" stroke="black" stroke-opacity="0.2" stroke-width="0.657895"/>
<rect x="55.6842" y="46.1579" width="1.31579" height="1.31579" fill="#1C2145"/>
<rect x="56.0131" y="46.4868" width="0.657895" height="0.657895" stroke="black" stroke-opacity="0.2" stroke-width="0.657895"/>
<rect x="55.6842" y="48.7895" width="1.31579" height="1.31579" fill="#1C2145"/>
<rect x="56.0131" y="49.1184" width="0.657895" height="0.657895" stroke="black" stroke-opacity="0.2" stroke-width="0.657895"/>
<rect x="55.6842" y="51.421" width="1.31579" height="1.31579" fill="#1C2145"/>
<rect x="56.0131" y="51.75" width="0.657895" height="0.657895" stroke="black" stroke-opacity="0.2" stroke-width="0.657895"/>
<rect x="55.6842" y="54.0526" width="1.31579" height="1.31579" fill="#1C2145"/>
<rect x="56.0131" y="54.3816" width="0.657895" height="0.657895" stroke="black" stroke-opacity="0.2" stroke-width="0.657895"/>
<rect x="34.6316" y="34.3158" width="1.31579" height="1.31579" transform="rotate(-90 34.6316 34.3158)" fill="#1C2145"/>
<rect x="34.9605" y="33.9868" width="0.657895" height="0.657895" transform="rotate(-90 34.9605 33.9868)" stroke="black" stroke-opacity="0.2" stroke-width="0.657895"/>
<rect x="37.2632" y="34.3158" width="1.31579" height="1.31579" transform="rotate(-90 37.2632 34.3158)" fill="#1C2145"/>
<rect x="37.5921" y="33.9868" width="0.657895" height="0.657895" transform="rotate(-90 37.5921 33.9868)" stroke="black" stroke-opacity="0.2" stroke-width="0.657895"/>
<rect x="39.8947" y="34.3158" width="1.31579" height="1.31579" transform="rotate(-90 39.8947 34.3158)" fill="#1C2145"/>
<rect x="40.2236" y="33.9868" width="0.657895" height="0.657895" transform="rotate(-90 40.2236 33.9868)" stroke="black" stroke-opacity="0.2" stroke-width="0.657895"/>
<rect x="42.5263" y="34.3158" width="1.31579" height="1.31579" transform="rotate(-90 42.5263 34.3158)" fill="#1C2145"/>
<rect x="42.8553" y="33.9868" width="0.657895" height="0.657895" transform="rotate(-90 42.8553 33.9868)" stroke="black" stroke-opacity="0.2" stroke-width="0.657895"/>
<rect x="45.1579" y="34.3158" width="1.31579" height="1.31579" transform="rotate(-90 45.1579 34.3158)" fill="#1C2145"/>
<rect x="45.4868" y="33.9868" width="0.657895" height="0.657895" transform="rotate(-90 45.4868 33.9868)" stroke="black" stroke-opacity="0.2" stroke-width="0.657895"/>
<rect x="47.7895" y="34.3158" width="1.31579" height="1.31579" transform="rotate(-90 47.7895 34.3158)" fill="#1C2145"/>
<rect x="48.1184" y="33.9868" width="0.657895" height="0.657895" transform="rotate(-90 48.1184 33.9868)" stroke="black" stroke-opacity="0.2" stroke-width="0.657895"/>
<rect x="50.421" y="34.3158" width="1.31579" height="1.31579" transform="rotate(-90 50.421 34.3158)" fill="#1C2145"/>
<rect x="50.75" y="33.9868" width="0.657895" height="0.657895" transform="rotate(-90 50.75 33.9868)" stroke="black" stroke-opacity="0.2" stroke-width="0.657895"/>
<rect x="53.0526" y="34.3158" width="1.31579" height="1.31579" transform="rotate(-90 53.0526 34.3158)" fill="#1C2145"/>
<rect x="53.3816" y="33.9868" width="0.657895" height="0.657895" transform="rotate(-90 53.3816 33.9868)" stroke="black" stroke-opacity="0.2" stroke-width="0.657895"/>
<rect x="34.6316" y="58" width="1.31579" height="1.31579" transform="rotate(-90 34.6316 58)" fill="#1C2145"/>
<rect x="34.9605" y="57.6711" width="0.657895" height="0.657895" transform="rotate(-90 34.9605 57.6711)" stroke="black" stroke-opacity="0.2" stroke-width="0.657895"/>
<rect x="37.2632" y="58" width="1.31579" height="1.31579" transform="rotate(-90 37.2632 58)" fill="#1C2145"/>
<rect x="37.5921" y="57.6711" width="0.657895" height="0.657895" transform="rotate(-90 37.5921 57.6711)" stroke="black" stroke-opacity="0.2" stroke-width="0.657895"/>
<rect x="39.8947" y="58" width="1.31579" height="1.31579" transform="rotate(-90 39.8947 58)" fill="#1C2145"/>
<rect x="40.2236" y="57.6711" width="0.657895" height="0.657895" transform="rotate(-90 40.2236 57.6711)" stroke="black" stroke-opacity="0.2" stroke-width="0.657895"/>
<rect x="42.5263" y="58" width="1.31579" height="1.31579" transform="rotate(-90 42.5263 58)" fill="#1C2145"/>
<rect x="42.8553" y="57.6711" width="0.657895" height="0.657895" transform="rotate(-90 42.8553 57.6711)" stroke="black" stroke-opacity="0.2" stroke-width="0.657895"/>
<rect x="45.1579" y="58" width="1.31579" height="1.31579" transform="rotate(-90 45.1579 58)" fill="#1C2145"/>
<rect x="45.4868" y="57.6711" width="0.657895" height="0.657895" transform="rotate(-90 45.4868 57.6711)" stroke="black" stroke-opacity="0.2" stroke-width="0.657895"/>
<rect x="47.7895" y="58" width="1.31579" height="1.31579" transform="rotate(-90 47.7895 58)" fill="#1C2145"/>
<rect x="48.1184" y="57.6711" width="0.657895" height="0.657895" transform="rotate(-90 48.1184 57.6711)" stroke="black" stroke-opacity="0.2" stroke-width="0.657895"/>
<rect x="50.421" y="58" width="1.31579" height="1.31579" transform="rotate(-90 50.421 58)" fill="#1C2145"/>
<rect x="50.75" y="57.6711" width="0.657895" height="0.657895" transform="rotate(-90 50.75 57.6711)" stroke="black" stroke-opacity="0.2" stroke-width="0.657895"/>
<rect x="53.0526" y="58" width="1.31579" height="1.31579" transform="rotate(-90 53.0526 58)" fill="#1C2145"/>
<rect x="53.3816" y="57.6711" width="0.657895" height="0.657895" transform="rotate(-90 53.3816 57.6711)" stroke="black" stroke-opacity="0.2" stroke-width="0.657895"/>
<rect x="32" y="35.6316" width="1.31579" height="1.31579" fill="#1C2145"/>
<rect x="32.3289" y="35.9606" width="0.657895" height="0.657895" stroke="black" stroke-opacity="0.2" stroke-width="0.657895"/>
<rect x="32" y="38.2631" width="1.31579" height="1.31579" fill="#1C2145"/>
<rect x="32.3289" y="38.5921" width="0.657895" height="0.657895" stroke="black" stroke-opacity="0.2" stroke-width="0.657895"/>
<rect x="32" y="40.8947" width="1.31579" height="1.31579" fill="#1C2145"/>
<rect x="32.3289" y="41.2237" width="0.657895" height="0.657895" stroke="black" stroke-opacity="0.2" stroke-width="0.657895"/>
<rect x="32" y="43.5264" width="1.31579" height="1.31579" fill="#1C2145"/>
<rect x="32.3289" y="43.8553" width="0.657895" height="0.657895" stroke="black" stroke-opacity="0.2" stroke-width="0.657895"/>
<rect x="32" y="46.1579" width="1.31579" height="1.31579" fill="#1C2145"/>
<rect x="32.3289" y="46.4868" width="0.657895" height="0.657895" stroke="black" stroke-opacity="0.2" stroke-width="0.657895"/>
<rect x="32" y="48.7895" width="1.31579" height="1.31579" fill="#1C2145"/>
<rect x="32.3289" y="49.1184" width="0.657895" height="0.657895" stroke="black" stroke-opacity="0.2" stroke-width="0.657895"/>
<rect x="32" y="51.421" width="1.31579" height="1.31579" fill="#1C2145"/>
<rect x="32.3289" y="51.75" width="0.657895" height="0.657895" stroke="black" stroke-opacity="0.2" stroke-width="0.657895"/>
<rect x="32" y="54.0526" width="1.31579" height="1.31579" fill="#1C2145"/>
<rect x="32.3289" y="54.3816" width="0.657895" height="0.657895" stroke="black" stroke-opacity="0.2" stroke-width="0.657895"/>
<rect x="66" y="44" width="2" height="6" rx="1" fill="#1C2145"/>
<rect x="66.5" y="46" width="1" height="2" rx="0.5" fill="#F1B46D"/>
<rect x="62" y="44" width="2" height="6" rx="1" fill="#1C2145"/>
<rect x="62.5" y="46" width="1" height="2" rx="0.5" fill="#F1B46D"/>
<rect x="46" y="19" width="2" height="6" rx="1" fill="#1C2145"/>
<rect x="46.5" y="21" width="1" height="2" rx="0.5" fill="#F1B46D"/>
<rect x="42" y="19" width="2" height="6" rx="1" fill="#1C2145"/>
<rect x="42.5" y="21" width="1" height="2" rx="0.5" fill="#F1B46D"/>
<rect x="51" width="2" height="6" rx="1" fill="#1C2145"/>
<rect x="46" width="2" height="6" rx="1" fill="#1C2145"/>
<rect x="41" width="2" height="6" rx="1" fill="#1C2145"/>
<rect x="36" width="2" height="6" rx="1" fill="#1C2145"/>
<path d="M12 52C12 50.8954 11.1046 50 10 50H0L0 70H10C11.1046 70 12 69.1046 12 68L12 52Z" fill="#1C2145"/>
<path d="M81 52C81 50.8954 81.8954 50 83 50H86V70H83C81.8954 70 81 69.1046 81 68V52Z" fill="#1C2145"/>
<path d="M25.3898 74.033H26.7678L26.7808 75.125C26.9455 74.761 27.2055 74.462 27.5608 74.228C27.9161 73.994 28.3321 73.877 28.8088 73.877C29.4241 73.877 29.8965 74.007 30.2258 74.267C30.5551 74.5183 30.7761 74.8737 30.8888 75.333C31.0015 75.7923 31.0578 76.3903 31.0578 77.127V80H29.6538V77.166C29.6538 76.412 29.5801 75.8703 29.4328 75.541C29.2855 75.203 28.9821 75.034 28.5228 75.034C28.2628 75.034 27.9985 75.1163 27.7298 75.281C27.4611 75.437 27.2358 75.6667 27.0538 75.97C26.8805 76.2733 26.7938 76.6287 26.7938 77.036V80H25.3898V74.033ZM35.6883 80.13C34.9777 80.13 34.384 79.9913 33.9073 79.714C33.4307 79.428 33.0797 79.051 32.8543 78.583C32.629 78.1063 32.5163 77.5863 32.5163 77.023C32.5163 76.3903 32.6463 75.8357 32.9063 75.359C33.175 74.8823 33.5433 74.5183 34.0113 74.267C34.4793 74.007 35.008 73.877 35.5973 73.877C36.516 73.877 37.1963 74.1327 37.6383 74.644C38.089 75.1467 38.3143 75.8573 38.3143 76.776C38.3143 77.01 38.3013 77.2527 38.2753 77.504H33.9853C34.0807 78.0327 34.267 78.414 34.5443 78.648C34.8303 78.882 35.2247 78.999 35.7273 78.999C36.1433 78.999 36.4857 78.9643 36.7543 78.895C37.023 78.8257 37.27 78.7303 37.4953 78.609L37.9243 79.61C37.7077 79.7487 37.413 79.87 37.0403 79.974C36.6677 80.078 36.217 80.13 35.6883 80.13ZM36.9493 76.529C36.958 75.9917 36.841 75.6147 36.5983 75.398C36.3557 75.1727 36.009 75.06 35.5583 75.06C34.6483 75.06 34.124 75.5497 33.9853 76.529H36.9493ZM42.4253 80.13C41.8879 80.13 41.3896 80.0043 40.9303 79.753C40.4796 79.493 40.1156 79.129 39.8383 78.661C39.5696 78.1843 39.4353 77.6297 39.4353 76.997C39.4353 76.373 39.5523 75.827 39.7863 75.359C40.0289 74.891 40.3713 74.527 40.8133 74.267C41.2553 74.007 41.7753 73.877 42.3733 73.877C42.7199 73.877 43.0449 73.9377 43.3483 74.059C43.6516 74.1803 43.9073 74.332 44.1153 74.514C44.3233 74.6873 44.4619 74.8607 44.5313 75.034L44.5573 74.033H45.8963V80H44.5703L44.5443 78.947C44.3969 79.259 44.1283 79.5363 43.7383 79.779C43.3483 80.013 42.9106 80.13 42.4253 80.13ZM42.6593 78.96C43.1533 78.96 43.5693 78.791 43.9073 78.453C44.2453 78.1063 44.4143 77.6557 44.4143 77.101V77.01C44.4143 76.6373 44.3363 76.3037 44.1803 76.009C44.0243 75.7143 43.8119 75.4847 43.5433 75.32C43.2746 75.1553 42.9799 75.073 42.6593 75.073C42.1046 75.073 41.6756 75.255 41.3723 75.619C41.0689 75.9743 40.9173 76.438 40.9173 77.01C40.9173 77.5907 41.0646 78.063 41.3593 78.427C41.6626 78.7823 42.0959 78.96 42.6593 78.96ZM47.7453 74.033H49.1493V75.203C49.288 74.8043 49.5133 74.4837 49.8253 74.241C50.1373 73.9983 50.4927 73.877 50.8913 73.877C51.1687 73.877 51.3593 73.903 51.4633 73.955L51.2683 75.372C51.1903 75.32 51.0213 75.294 50.7613 75.294C50.354 75.294 49.9813 75.424 49.6433 75.684C49.314 75.944 49.1493 76.36 49.1493 76.932V80H47.7453V74.033Z" fill="#4A1EC6"/>
<path d="M53.9544 84H52.9384L52.1944 82.8L51.9864 82.392L51.5064 82.912V84H50.6744V78.12H51.4984V81.344L51.4824 81.968L52.8824 80.328H53.9464L52.5624 81.864L53.9544 84ZM56.4262 85.92C56.1542 85.92 55.8849 85.8827 55.6182 85.808C55.3569 85.7333 55.1702 85.664 55.0582 85.6L55.2502 84.8C55.6022 85.0293 55.9862 85.144 56.4022 85.144C56.7222 85.144 56.9916 85.0667 57.2102 84.912C57.4289 84.7573 57.5409 84.456 57.5462 84.008V83.352C57.4342 83.56 57.2529 83.7333 57.0022 83.872C56.7516 84.0107 56.4742 84.08 56.1702 84.08C55.8502 84.08 55.5569 84.0027 55.2902 83.848C55.0236 83.688 54.8129 83.4613 54.6582 83.168C54.5036 82.8747 54.4262 82.5333 54.4262 82.144C54.4262 81.7707 54.4982 81.44 54.6422 81.152C54.7916 80.8587 55.0022 80.632 55.2742 80.472C55.5462 80.312 55.8636 80.232 56.2262 80.232C56.4396 80.232 56.6396 80.2693 56.8262 80.344C57.0129 80.4187 57.1702 80.512 57.2982 80.624C57.4316 80.7307 57.5196 80.8373 57.5622 80.944L57.5782 80.328H58.3942V83.976C58.3942 84.6 58.2342 85.08 57.9142 85.416C57.5942 85.752 57.0982 85.92 56.4262 85.92ZM56.4102 83.352C56.7142 83.352 56.9702 83.248 57.1782 83.04C57.3862 82.8267 57.4902 82.5493 57.4902 82.208V82.152C57.4902 81.9227 57.4422 81.7173 57.3462 81.536C57.2502 81.3547 57.1196 81.2133 56.9542 81.112C56.7889 81.0107 56.6076 80.96 56.4102 80.96C56.0689 80.96 55.8049 81.072 55.6182 81.296C55.4316 81.5147 55.3382 81.8 55.3382 82.152C55.3382 82.5093 55.4289 82.8 55.6102 83.024C55.7969 83.2427 56.0636 83.352 56.4102 83.352Z" fill="black"/>
</svg>
