<svg width="89" height="168" viewBox="0 0 89 168" fill="none" xmlns="http://www.w3.org/2000/svg">
<rect width="89" height="168" rx="9" fill="white"/>
<circle cx="79" cy="34" r="6.5" fill="white" stroke="#1C2145"/>
<circle cx="79" cy="34" r="5" fill="#1C2145"/>
<circle cx="80" cy="10" r="4.5" stroke="black"/>
<circle cx="10" cy="10" r="4.5" stroke="black"/>
<circle cx="80" cy="160" r="4.5" stroke="black"/>
<circle cx="10" cy="160" r="4.5" stroke="black"/>
<rect x="5.48865" y="43.1421" width="17.8947" height="17.8947" transform="rotate(-45 5.48865 43.1421)" fill="#1C2145"/>
<rect x="18.8865" y="31.233" width="1.05263" height="1.05263" transform="rotate(-45 18.8865 31.233)" fill="#1C2145"/>
<rect x="20.3751" y="32.7216" width="1.05263" height="1.05263" transform="rotate(-45 20.3751 32.7216)" fill="#1C2145"/>
<rect x="21.8637" y="34.2103" width="1.05263" height="1.05263" transform="rotate(-45 21.8637 34.2103)" fill="#1C2145"/>
<rect x="23.3524" y="35.6989" width="1.05263" height="1.05263" transform="rotate(-45 23.3524 35.6989)" fill="#1C2145"/>
<rect x="24.841" y="37.1875" width="1.05263" height="1.05263" transform="rotate(-45 24.841 37.1875)" fill="#1C2145"/>
<rect x="26.3297" y="38.6762" width="1.05263" height="1.05263" transform="rotate(-45 26.3297 38.6762)" fill="#1C2145"/>
<rect x="27.8183" y="40.1648" width="1.05263" height="1.05263" transform="rotate(-45 27.8183 40.1648)" fill="#1C2145"/>
<rect x="29.307" y="41.6535" width="1.05263" height="1.05263" transform="rotate(-45 29.307 41.6535)" fill="#1C2145"/>
<rect x="6.23297" y="42.3978" width="1.05263" height="1.05263" transform="rotate(-135 6.23297 42.3978)" fill="#1C2145"/>
<rect x="7.72162" y="40.9092" width="1.05263" height="1.05263" transform="rotate(-135 7.72162 40.9092)" fill="#1C2145"/>
<rect x="9.21027" y="39.4205" width="1.05263" height="1.05263" transform="rotate(-135 9.21027 39.4205)" fill="#1C2145"/>
<rect x="10.6989" y="37.9319" width="1.05263" height="1.05263" transform="rotate(-135 10.6989 37.9319)" fill="#1C2145"/>
<rect x="12.1876" y="36.4432" width="1.05263" height="1.05263" transform="rotate(-135 12.1876 36.4432)" fill="#1C2145"/>
<rect x="13.6762" y="34.9546" width="1.05263" height="1.05263" transform="rotate(-135 13.6762 34.9546)" fill="#1C2145"/>
<rect x="15.1648" y="33.4659" width="1.05263" height="1.05263" transform="rotate(-135 15.1648 33.4659)" fill="#1C2145"/>
<rect x="16.6535" y="31.9773" width="1.05263" height="1.05263" transform="rotate(-135 16.6535 31.9773)" fill="#1C2145"/>
<rect x="19.6308" y="55.7956" width="1.05263" height="1.05263" transform="rotate(-135 19.6308 55.7956)" fill="#1C2145"/>
<rect x="21.1194" y="54.307" width="1.05263" height="1.05263" transform="rotate(-135 21.1194 54.307)" fill="#1C2145"/>
<rect x="22.6081" y="52.8183" width="1.05263" height="1.05263" transform="rotate(-135 22.6081 52.8183)" fill="#1C2145"/>
<rect x="24.0967" y="51.3297" width="1.05263" height="1.05263" transform="rotate(-135 24.0967 51.3297)" fill="#1C2145"/>
<rect x="25.5854" y="49.841" width="1.05263" height="1.05263" transform="rotate(-135 25.5854 49.841)" fill="#1C2145"/>
<rect x="27.074" y="48.3524" width="1.05263" height="1.05263" transform="rotate(-135 27.074 48.3524)" fill="#1C2145"/>
<rect x="28.5627" y="46.8638" width="1.05263" height="1.05263" transform="rotate(-135 28.5627 46.8638)" fill="#1C2145"/>
<rect x="30.0513" y="45.3751" width="1.05263" height="1.05263" transform="rotate(-135 30.0513 45.3751)" fill="#1C2145"/>
<rect x="5.48865" y="44.6308" width="1.05263" height="1.05263" transform="rotate(-45 5.48865 44.6308)" fill="#1C2145"/>
<rect x="6.97729" y="46.1194" width="1.05263" height="1.05263" transform="rotate(-45 6.97729 46.1194)" fill="#1C2145"/>
<rect x="8.46593" y="47.6081" width="1.05263" height="1.05263" transform="rotate(-45 8.46593 47.6081)" fill="#1C2145"/>
<rect x="9.95457" y="49.0967" width="1.05263" height="1.05263" transform="rotate(-45 9.95457 49.0967)" fill="#1C2145"/>
<rect x="11.4432" y="50.5854" width="1.05263" height="1.05263" transform="rotate(-45 11.4432 50.5854)" fill="#1C2145"/>
<rect x="12.9319" y="52.074" width="1.05263" height="1.05263" transform="rotate(-45 12.9319 52.074)" fill="#1C2145"/>
<rect x="14.4205" y="53.5627" width="1.05263" height="1.05263" transform="rotate(-45 14.4205 53.5627)" fill="#1C2145"/>
<rect x="15.9092" y="55.0513" width="1.05263" height="1.05263" transform="rotate(-45 15.9092 55.0513)" fill="#1C2145"/>
<rect x="17.5263" y="99.5263" width="8.94737" height="8.94737" fill="#1C2145"/>
<rect x="26.4737" y="100.053" width="0.526316" height="0.526316" fill="#1C2145"/>
<rect x="26.4737" y="101.105" width="0.526316" height="0.526316" fill="#1C2145"/>
<rect x="26.4737" y="102.158" width="0.526316" height="0.526316" fill="#1C2145"/>
<rect x="26.4737" y="103.211" width="0.526316" height="0.526316" fill="#1C2145"/>
<rect x="26.4737" y="104.263" width="0.526316" height="0.526316" fill="#1C2145"/>
<rect x="26.4737" y="105.316" width="0.526316" height="0.526316" fill="#1C2145"/>
<rect x="26.4737" y="106.368" width="0.526316" height="0.526316" fill="#1C2145"/>
<rect x="26.4737" y="107.421" width="0.526316" height="0.526316" fill="#1C2145"/>
<rect x="18.0526" y="99.5263" width="0.526316" height="0.526316" transform="rotate(-90 18.0526 99.5263)" fill="#1C2145"/>
<rect x="19.1053" y="99.5263" width="0.526316" height="0.526316" transform="rotate(-90 19.1053 99.5263)" fill="#1C2145"/>
<rect x="20.1579" y="99.5263" width="0.526316" height="0.526316" transform="rotate(-90 20.1579 99.5263)" fill="#1C2145"/>
<rect x="21.2105" y="99.5263" width="0.526316" height="0.526316" transform="rotate(-90 21.2105 99.5263)" fill="#1C2145"/>
<rect x="22.2632" y="99.5263" width="0.526316" height="0.526316" transform="rotate(-90 22.2632 99.5263)" fill="#1C2145"/>
<rect x="23.3158" y="99.5263" width="0.526316" height="0.526316" transform="rotate(-90 23.3158 99.5263)" fill="#1C2145"/>
<rect x="24.3684" y="99.5263" width="0.526316" height="0.526316" transform="rotate(-90 24.3684 99.5263)" fill="#1C2145"/>
<rect x="25.4211" y="99.5263" width="0.526316" height="0.526316" transform="rotate(-90 25.4211 99.5263)" fill="#1C2145"/>
<rect x="18.0526" y="109" width="0.526316" height="0.526316" transform="rotate(-90 18.0526 109)" fill="#1C2145"/>
<rect x="19.1053" y="109" width="0.526316" height="0.526316" transform="rotate(-90 19.1053 109)" fill="#1C2145"/>
<rect x="20.1579" y="109" width="0.526316" height="0.526316" transform="rotate(-90 20.1579 109)" fill="#1C2145"/>
<rect x="21.2105" y="109" width="0.526316" height="0.526316" transform="rotate(-90 21.2105 109)" fill="#1C2145"/>
<rect x="22.2632" y="109" width="0.526316" height="0.526316" transform="rotate(-90 22.2632 109)" fill="#1C2145"/>
<rect x="23.3158" y="109" width="0.526316" height="0.526316" transform="rotate(-90 23.3158 109)" fill="#1C2145"/>
<rect x="24.3684" y="109" width="0.526316" height="0.526316" transform="rotate(-90 24.3684 109)" fill="#1C2145"/>
<rect x="25.4211" y="109" width="0.526316" height="0.526316" transform="rotate(-90 25.4211 109)" fill="#1C2145"/>
<rect x="17" y="100.053" width="0.526316" height="0.526316" fill="#1C2145"/>
<rect x="17" y="101.105" width="0.526316" height="0.526316" fill="#1C2145"/>
<rect x="17" y="102.158" width="0.526316" height="0.526316" fill="#1C2145"/>
<rect x="17" y="103.211" width="0.526316" height="0.526316" fill="#1C2145"/>
<rect x="17" y="104.263" width="0.526316" height="0.526316" fill="#1C2145"/>
<rect x="17" y="105.316" width="0.526316" height="0.526316" fill="#1C2145"/>
<rect x="17" y="106.368" width="0.526316" height="0.526316" fill="#1C2145"/>
<rect x="17" y="107.421" width="0.526316" height="0.526316" fill="#1C2145"/>
<rect x="63.6316" y="104.632" width="10.7368" height="10.7368" fill="#1C2145"/>
<rect x="74.3684" y="105.263" width="0.631579" height="0.631579" fill="#1C2145"/>
<rect x="74.3684" y="106.526" width="0.631579" height="0.631579" fill="#1C2145"/>
<rect x="74.3684" y="107.789" width="0.631579" height="0.631579" fill="#1C2145"/>
<rect x="74.3684" y="109.053" width="0.631579" height="0.631579" fill="#1C2145"/>
<rect x="74.3684" y="110.316" width="0.631579" height="0.631579" fill="#1C2145"/>
<rect x="74.3684" y="111.579" width="0.631579" height="0.631579" fill="#1C2145"/>
<rect x="74.3684" y="112.842" width="0.631579" height="0.631579" fill="#1C2145"/>
<rect x="74.3684" y="114.105" width="0.631579" height="0.631579" fill="#1C2145"/>
<rect x="64.2632" y="104.632" width="0.631579" height="0.631579" transform="rotate(-90 64.2632 104.632)" fill="#1C2145"/>
<rect x="65.5263" y="104.632" width="0.631579" height="0.631579" transform="rotate(-90 65.5263 104.632)" fill="#1C2145"/>
<rect x="66.7895" y="104.632" width="0.631579" height="0.631579" transform="rotate(-90 66.7895 104.632)" fill="#1C2145"/>
<rect x="68.0526" y="104.632" width="0.631579" height="0.631579" transform="rotate(-90 68.0526 104.632)" fill="#1C2145"/>
<rect x="69.3158" y="104.632" width="0.631579" height="0.631579" transform="rotate(-90 69.3158 104.632)" fill="#1C2145"/>
<rect x="70.5789" y="104.632" width="0.631579" height="0.631579" transform="rotate(-90 70.5789 104.632)" fill="#1C2145"/>
<rect x="71.8421" y="104.632" width="0.631579" height="0.631579" transform="rotate(-90 71.8421 104.632)" fill="#1C2145"/>
<rect x="73.1053" y="104.632" width="0.631579" height="0.631579" transform="rotate(-90 73.1053 104.632)" fill="#1C2145"/>
<rect x="64.2632" y="116" width="0.631579" height="0.631579" transform="rotate(-90 64.2632 116)" fill="#1C2145"/>
<rect x="65.5263" y="116" width="0.631579" height="0.631579" transform="rotate(-90 65.5263 116)" fill="#1C2145"/>
<rect x="66.7895" y="116" width="0.631579" height="0.631579" transform="rotate(-90 66.7895 116)" fill="#1C2145"/>
<rect x="68.0526" y="116" width="0.631579" height="0.631579" transform="rotate(-90 68.0526 116)" fill="#1C2145"/>
<rect x="69.3158" y="116" width="0.631579" height="0.631579" transform="rotate(-90 69.3158 116)" fill="#1C2145"/>
<rect x="70.5789" y="116" width="0.631579" height="0.631579" transform="rotate(-90 70.5789 116)" fill="#1C2145"/>
<rect x="71.8421" y="116" width="0.631579" height="0.631579" transform="rotate(-90 71.8421 116)" fill="#1C2145"/>
<rect x="73.1053" y="116" width="0.631579" height="0.631579" transform="rotate(-90 73.1053 116)" fill="#1C2145"/>
<rect x="63" y="105.263" width="0.631579" height="0.631579" fill="#1C2145"/>
<rect x="63" y="106.526" width="0.631579" height="0.631579" fill="#1C2145"/>
<rect x="63" y="107.789" width="0.631579" height="0.631579" fill="#1C2145"/>
<rect x="63" y="109.053" width="0.631579" height="0.631579" fill="#1C2145"/>
<rect x="63" y="110.316" width="0.631579" height="0.631579" fill="#1C2145"/>
<rect x="63" y="111.579" width="0.631579" height="0.631579" fill="#1C2145"/>
<rect x="63" y="112.842" width="0.631579" height="0.631579" fill="#1C2145"/>
<rect x="63" y="114.105" width="0.631579" height="0.631579" fill="#1C2145"/>
<rect x="32" y="70" width="28" height="28" fill="#1C2145"/>
<rect x="59.421" y="72.158" width="1.57895" height="1.57895" fill="#1C2145"/>
<rect x="59.421" y="75.3158" width="1.57895" height="1.57895" fill="#1C2145"/>
<rect x="59.421" y="78.4737" width="1.57895" height="1.57895" fill="#1C2145"/>
<rect x="59.421" y="81.6317" width="1.57895" height="1.57895" fill="#1C2145"/>
<rect x="59.421" y="84.7895" width="1.57895" height="1.57895" fill="#1C2145"/>
<rect x="59.421" y="87.9474" width="1.57895" height="1.57895" fill="#1C2145"/>
<rect x="59.421" y="91.1053" width="1.57895" height="1.57895" fill="#1C2145"/>
<rect x="59.421" y="94.2632" width="1.57895" height="1.57895" fill="#1C2145"/>
<rect x="34.1579" y="70.5789" width="1.57895" height="1.57895" transform="rotate(-90 34.1579 70.5789)" fill="#1C2145"/>
<rect x="37.3158" y="70.5789" width="1.57895" height="1.57895" transform="rotate(-90 37.3158 70.5789)" fill="#1C2145"/>
<rect x="40.4736" y="70.5789" width="1.57895" height="1.57895" transform="rotate(-90 40.4736 70.5789)" fill="#1C2145"/>
<rect x="43.6316" y="70.5789" width="1.57895" height="1.57895" transform="rotate(-90 43.6316 70.5789)" fill="#1C2145"/>
<rect x="46.7895" y="70.5789" width="1.57895" height="1.57895" transform="rotate(-90 46.7895 70.5789)" fill="#1C2145"/>
<rect x="49.9474" y="70.5789" width="1.57895" height="1.57895" transform="rotate(-90 49.9474 70.5789)" fill="#1C2145"/>
<rect x="53.1052" y="70.5789" width="1.57895" height="1.57895" transform="rotate(-90 53.1052 70.5789)" fill="#1C2145"/>
<rect x="56.2631" y="70.5789" width="1.57895" height="1.57895" transform="rotate(-90 56.2631 70.5789)" fill="#1C2145"/>
<rect x="34.1579" y="99" width="1.57895" height="1.57895" transform="rotate(-90 34.1579 99)" fill="#1C2145"/>
<rect x="37.3158" y="99" width="1.57895" height="1.57895" transform="rotate(-90 37.3158 99)" fill="#1C2145"/>
<rect x="40.4736" y="99" width="1.57895" height="1.57895" transform="rotate(-90 40.4736 99)" fill="#1C2145"/>
<rect x="43.6316" y="99" width="1.57895" height="1.57895" transform="rotate(-90 43.6316 99)" fill="#1C2145"/>
<rect x="46.7895" y="99" width="1.57895" height="1.57895" transform="rotate(-90 46.7895 99)" fill="#1C2145"/>
<rect x="49.9474" y="99" width="1.57895" height="1.57895" transform="rotate(-90 49.9474 99)" fill="#1C2145"/>
<rect x="53.1052" y="99" width="1.57895" height="1.57895" transform="rotate(-90 53.1052 99)" fill="#1C2145"/>
<rect x="56.2631" y="99" width="1.57895" height="1.57895" transform="rotate(-90 56.2631 99)" fill="#1C2145"/>
<rect x="31" y="72.158" width="1.57895" height="1.57895" fill="#1C2145"/>
<rect x="31" y="75.3158" width="1.57895" height="1.57895" fill="#1C2145"/>
<rect x="31" y="78.4737" width="1.57895" height="1.57895" fill="#1C2145"/>
<rect x="31" y="81.6317" width="1.57895" height="1.57895" fill="#1C2145"/>
<rect x="31" y="84.7895" width="1.57895" height="1.57895" fill="#1C2145"/>
<rect x="31" y="87.9474" width="1.57895" height="1.57895" fill="#1C2145"/>
<rect x="31" y="91.1053" width="1.57895" height="1.57895" fill="#1C2145"/>
<rect x="31" y="94.2632" width="1.57895" height="1.57895" fill="#1C2145"/>
<path d="M84 102C84 100.895 84.8954 100 86 100H89V120H86C84.8954 120 84 119.105 84 118V102Z" fill="#1C2145"/>
<rect x="66" y="44" width="2" height="6" rx="1" fill="#1C2145"/>
<rect x="66.5" y="46" width="1" height="2" rx="0.5" fill="#F1B46D"/>
<rect x="62" y="44" width="2" height="6" rx="1" fill="#1C2145"/>
<rect x="62.5" y="46" width="1" height="2" rx="0.5" fill="#F1B46D"/>
<rect x="11" y="143" width="2" height="6" rx="1" fill="#1C2145"/>
<rect x="11.5" y="145" width="1" height="2" rx="0.5" fill="#F1B46D"/>
<rect x="7" y="143" width="2" height="6" rx="1" fill="#1C2145"/>
<rect x="7.5" y="145" width="1" height="2" rx="0.5" fill="#F1B46D"/>
<rect x="69" y="128" width="10" height="10" rx="1" fill="#1C2145"/>
<rect x="71" y="130" width="6" height="6" rx="1" fill="#F1B46D"/>
<path d="M26 161C27.1046 161 28 161.895 28 163V168H21V163C21 161.895 21.8954 161 23 161H26Z" fill="#1C2145"/>
<path d="M22 164C22 162.895 22.8954 162 24 162H25C26.1046 162 27 162.895 27 164V168H22V164Z" fill="#F1B46D"/>
<rect x="46" y="21" width="2" height="6" rx="1" fill="#1C2145"/>
<rect x="46.5" y="23" width="1" height="2" rx="0.5" fill="#F1B46D"/>
<rect x="42" y="21" width="2" height="6" rx="1" fill="#1C2145"/>
<rect x="42.5" y="23" width="1" height="2" rx="0.5" fill="#F1B46D"/>
<rect x="52" width="2" height="6" rx="1" fill="#1C2145"/>
<rect x="47" width="2" height="6" rx="1" fill="#1C2145"/>
<rect x="42" width="2" height="6" rx="1" fill="#1C2145"/>
<rect x="37" width="2" height="6" rx="1" fill="#1C2145"/>
<path d="M19 70C19 68.8954 18.1046 68 17 68H0V88H17C18.1046 88 19 87.1046 19 86V70Z" fill="#1C2145"/>
<path d="M15 116C15 114.895 14.1046 114 13 114H0V128H13C14.1046 128 15 127.105 15 126V116Z" fill="#1C2145"/>
<path d="M84 52C84 50.8954 84.8954 50 86 50H89V70H86C84.8954 70 84 69.1046 84 68V52Z" fill="#1C2145"/>
<path d="M53 163C54.1046 163 55 163.895 55 165V168H35V165C35 163.895 35.8954 163 37 163H53Z" fill="#1C2145"/>
<path d="M27.6808 143.177H26.6278V142.033H27.6808V139.602L29.0978 139.29V142.033H30.4758V143.177H29.0978V148H27.6808V143.177ZM34.4378 148.13C33.7272 148.13 33.1335 147.991 32.6568 147.714C32.1802 147.428 31.8292 147.051 31.6038 146.583C31.3785 146.106 31.2658 145.586 31.2658 145.023C31.2658 144.39 31.3958 143.836 31.6558 143.359C31.9245 142.882 32.2928 142.518 32.7608 142.267C33.2288 142.007 33.7575 141.877 34.3468 141.877C35.2655 141.877 35.9458 142.133 36.3878 142.644C36.8385 143.147 37.0638 143.857 37.0638 144.776C37.0638 145.01 37.0508 145.253 37.0248 145.504H32.7348C32.8302 146.033 33.0165 146.414 33.2938 146.648C33.5798 146.882 33.9742 146.999 34.4768 146.999C34.8928 146.999 35.2352 146.964 35.5038 146.895C35.7725 146.826 36.0195 146.73 36.2448 146.609L36.6738 147.61C36.4572 147.749 36.1625 147.87 35.7898 147.974C35.4172 148.078 34.9665 148.13 34.4378 148.13ZM35.6988 144.529C35.7075 143.992 35.5905 143.615 35.3478 143.398C35.1052 143.173 34.7585 143.06 34.3078 143.06C33.3978 143.06 32.8735 143.55 32.7348 144.529H35.6988ZM38.4968 142.033H39.9008V143.203C40.0395 142.804 40.2648 142.484 40.5768 142.241C40.8888 141.998 41.2441 141.877 41.6428 141.877C41.9201 141.877 42.1108 141.903 42.2148 141.955L42.0198 143.372C41.9418 143.32 41.7728 143.294 41.5128 143.294C41.1055 143.294 40.7328 143.424 40.3948 143.684C40.0655 143.944 39.9008 144.36 39.9008 144.932V148H38.4968V142.033ZM43.2077 142.033H44.5857L44.5987 143.125C44.7633 142.761 45.0233 142.462 45.3787 142.228C45.734 141.994 46.15 141.877 46.6267 141.877C47.242 141.877 47.7143 142.007 48.0437 142.267C48.373 142.518 48.594 142.874 48.7067 143.333C48.8193 143.792 48.8757 144.39 48.8757 145.127V148H47.4717V145.166C47.4717 144.412 47.398 143.87 47.2507 143.541C47.1033 143.203 46.8 143.034 46.3407 143.034C46.0807 143.034 45.8163 143.116 45.5477 143.281C45.279 143.437 45.0537 143.667 44.8717 143.97C44.6983 144.273 44.6117 144.629 44.6117 145.036V148H43.2077V142.033Z" fill="#4A1EC6"/>
<circle cx="48" cy="140" r="1" fill="#4A1EC6"/>
<path d="M52.9544 152H51.9384L51.1944 150.8L50.9864 150.392L50.5064 150.912V152H49.6744V146.12H50.4984V149.344L50.4824 149.968L51.8824 148.328H52.9464L51.5624 149.864L52.9544 152ZM55.4262 153.92C55.1542 153.92 54.8849 153.883 54.6182 153.808C54.3569 153.733 54.1702 153.664 54.0582 153.6L54.2502 152.8C54.6022 153.029 54.9862 153.144 55.4022 153.144C55.7222 153.144 55.9916 153.067 56.2102 152.912C56.4289 152.757 56.5409 152.456 56.5462 152.008V151.352C56.4342 151.56 56.2529 151.733 56.0022 151.872C55.7516 152.011 55.4742 152.08 55.1702 152.08C54.8502 152.08 54.5569 152.003 54.2902 151.848C54.0236 151.688 53.8129 151.461 53.6582 151.168C53.5036 150.875 53.4262 150.533 53.4262 150.144C53.4262 149.771 53.4982 149.44 53.6422 149.152C53.7916 148.859 54.0022 148.632 54.2742 148.472C54.5462 148.312 54.8636 148.232 55.2262 148.232C55.4396 148.232 55.6396 148.269 55.8262 148.344C56.0129 148.419 56.1702 148.512 56.2982 148.624C56.4316 148.731 56.5196 148.837 56.5622 148.944L56.5782 148.328H57.3942V151.976C57.3942 152.6 57.2342 153.08 56.9142 153.416C56.5942 153.752 56.0982 153.92 55.4262 153.92ZM55.4102 151.352C55.7142 151.352 55.9702 151.248 56.1782 151.04C56.3862 150.827 56.4902 150.549 56.4902 150.208V150.152C56.4902 149.923 56.4422 149.717 56.3462 149.536C56.2502 149.355 56.1196 149.213 55.9542 149.112C55.7889 149.011 55.6076 148.96 55.4102 148.96C55.0689 148.96 54.8049 149.072 54.6182 149.296C54.4316 149.515 54.3382 149.8 54.3382 150.152C54.3382 150.509 54.4289 150.8 54.6102 151.024C54.7969 151.243 55.0636 151.352 55.4102 151.352Z" fill="black"/>
<path d="M5.1953 122.04C5.0673 122.04 4.93396 122.024 4.7953 121.992C4.6593 121.957 4.56196 121.917 4.5033 121.872L4.6473 121.532C4.8073 121.644 4.98996 121.7 5.1953 121.7C5.40063 121.7 5.5033 121.64 5.5033 121.52C5.5033 121.467 5.48196 121.425 5.4393 121.396C5.39663 121.367 5.32063 121.332 5.2113 121.292L5.0593 121.236C4.8993 121.172 4.77263 121.096 4.6793 121.008C4.58596 120.917 4.5393 120.799 4.5393 120.652C4.5393 120.484 4.60463 120.353 4.7353 120.26C4.86863 120.164 5.04596 120.116 5.2673 120.116C5.37663 120.116 5.4833 120.128 5.5873 120.152C5.69396 120.176 5.7753 120.207 5.8313 120.244L5.6753 120.588C5.64063 120.553 5.58463 120.524 5.5073 120.5C5.43263 120.473 5.34863 120.46 5.2553 120.46C5.06596 120.46 4.9713 120.517 4.9713 120.632C4.9713 120.696 4.99663 120.745 5.0473 120.78C5.09796 120.812 5.18063 120.848 5.2953 120.888C5.30596 120.891 5.3473 120.905 5.4193 120.932C5.58996 120.999 5.71663 121.075 5.7993 121.16C5.88196 121.245 5.9233 121.355 5.9233 121.488C5.9233 121.669 5.85396 121.807 5.7153 121.9C5.5793 121.993 5.40596 122.04 5.1953 122.04ZM6.40389 120.164H6.85189V122H6.40389V120.164ZM6.62389 119.82C6.54122 119.82 6.47189 119.792 6.41589 119.736C6.35989 119.68 6.33189 119.611 6.33189 119.528C6.33189 119.453 6.35989 119.389 6.41589 119.336C6.47189 119.283 6.54122 119.256 6.62389 119.256C6.70389 119.256 6.77189 119.283 6.82789 119.336C6.88389 119.389 6.91189 119.453 6.91189 119.528C6.91189 119.611 6.88389 119.68 6.82789 119.736C6.77456 119.792 6.70656 119.82 6.62389 119.82ZM7.45002 120.164H7.88202V120.496C7.94068 120.371 8.02602 120.276 8.13802 120.212C8.25268 120.148 8.38335 120.116 8.53002 120.116C8.85802 120.119 9.05935 120.232 9.13402 120.456C9.19268 120.352 9.28068 120.269 9.39802 120.208C9.51535 120.147 9.63935 120.116 9.77002 120.116C9.96202 120.116 10.1073 120.153 10.206 120.228C10.3047 120.3 10.37 120.404 10.402 120.54C10.4367 120.673 10.454 120.853 10.454 121.08V122H10.018V121.076C10.018 120.86 9.99535 120.705 9.95002 120.612C9.90735 120.519 9.82335 120.472 9.69802 120.472C9.53002 120.472 9.40202 120.529 9.31402 120.644C9.22868 120.756 9.18602 120.904 9.18602 121.088V122H8.75402V121.012C8.75402 120.871 8.74868 120.765 8.73802 120.696C8.72735 120.627 8.69802 120.572 8.65002 120.532C8.60202 120.492 8.52468 120.472 8.41802 120.472C8.32468 120.472 8.23668 120.5 8.15402 120.556C8.07402 120.612 8.00868 120.688 7.95802 120.784C7.91002 120.877 7.88602 120.979 7.88602 121.088V122H7.45002V120.164Z" fill="white"/>
<path d="M8.56027 76.04C8.40027 76.04 8.2416 76.012 8.08427 75.956C7.92693 75.9 7.8136 75.8373 7.74427 75.768L7.95627 75.388C8.01227 75.4387 8.09893 75.492 8.21627 75.548C8.33627 75.6013 8.45093 75.628 8.56027 75.628C8.7016 75.628 8.81627 75.5947 8.90427 75.528C8.99493 75.4613 9.04027 75.3693 9.04027 75.252C9.04027 75.1613 9.01627 75.0827 8.96827 75.016C8.92027 74.9493 8.8616 74.8947 8.79227 74.852C8.72293 74.8067 8.62427 74.752 8.49627 74.688C8.34427 74.6133 8.24027 74.5573 8.18427 74.52C7.9256 74.3467 7.79627 74.1067 7.79627 73.8C7.79627 73.5467 7.88027 73.3533 8.04827 73.22C8.21627 73.084 8.42827 73.016 8.68427 73.016C8.95893 73.016 9.19227 73.0947 9.38427 73.252L9.17227 73.616C9.1216 73.5627 9.0496 73.5173 8.95627 73.48C8.8656 73.44 8.76827 73.42 8.66427 73.42C8.53093 73.42 8.4256 73.4507 8.34827 73.512C8.2736 73.5707 8.23627 73.6587 8.23627 73.776C8.23627 73.8587 8.26027 73.9333 8.30827 74C8.35627 74.064 8.41627 74.12 8.48827 74.168C8.56293 74.216 8.66293 74.2747 8.78827 74.344C8.90827 74.4107 9.00027 74.464 9.06427 74.504C9.12827 74.5413 9.18827 74.5867 9.24427 74.64C9.3216 74.7093 9.38427 74.792 9.43227 74.888C9.48027 74.984 9.50427 75.0893 9.50427 75.204C9.50427 75.3827 9.46293 75.5347 9.38027 75.66C9.30027 75.7853 9.18827 75.88 9.04427 75.944C8.90293 76.008 8.7416 76.04 8.56027 76.04ZM9.98583 73.06H10.6938C11.2858 73.06 11.6992 73.2 11.9338 73.48C12.1712 73.76 12.2898 74.0933 12.2898 74.48C12.2898 74.7493 12.2392 74.9987 12.1378 75.228C12.0365 75.4547 11.8685 75.64 11.6338 75.784C11.4018 75.928 11.0965 76 10.7178 76H9.98583V73.06ZM10.7658 75.604C11.1338 75.604 11.4005 75.5 11.5658 75.292C11.7338 75.0813 11.8178 74.8173 11.8178 74.5C11.8178 74.1907 11.7338 73.9387 11.5658 73.744C11.3978 73.5493 11.1312 73.452 10.7658 73.452H10.4338V75.604H10.7658ZM7.03063 82.04C6.84929 82.04 6.68529 82.0013 6.53863 81.924C6.39463 81.844 6.27996 81.7307 6.19463 81.584C6.10929 81.4347 6.06663 81.26 6.06663 81.06C6.06663 80.8707 6.10529 80.7053 6.18263 80.564C6.26263 80.42 6.37329 80.3093 6.51463 80.232C6.65863 80.1547 6.82396 80.116 7.01063 80.116C7.15196 80.116 7.27329 80.1347 7.37463 80.172C7.47863 80.2067 7.55996 80.2507 7.61863 80.304L7.42663 80.652C7.31463 80.54 7.18796 80.484 7.04663 80.484C6.87596 80.484 6.74529 80.536 6.65463 80.64C6.56663 80.744 6.52263 80.8827 6.52263 81.056C6.52263 81.2533 6.56796 81.4067 6.65863 81.516C6.75196 81.6253 6.88129 81.68 7.04663 81.68C7.12929 81.68 7.20929 81.668 7.28663 81.644C7.36663 81.62 7.42796 81.592 7.47063 81.56L7.62663 81.864C7.56796 81.9093 7.48529 81.9507 7.37863 81.988C7.27463 82.0227 7.15863 82.04 7.03063 82.04ZM8.84991 82.04C8.68457 82.04 8.53124 82.0013 8.38991 81.924C8.25124 81.844 8.13924 81.732 8.05391 81.588C7.97124 81.4413 7.92991 81.2707 7.92991 81.076C7.92991 80.884 7.96591 80.716 8.03791 80.572C8.11257 80.428 8.21791 80.316 8.35391 80.236C8.48991 80.156 8.64991 80.116 8.83391 80.116C8.94057 80.116 9.04057 80.1347 9.13391 80.172C9.22724 80.2093 9.30591 80.256 9.36991 80.312C9.43391 80.3653 9.47657 80.4187 9.49791 80.472L9.50591 80.164H9.91791V82H9.50991L9.50191 81.676C9.45657 81.772 9.37391 81.8573 9.25391 81.932C9.13391 82.004 8.99924 82.04 8.84991 82.04ZM8.92191 81.68C9.07391 81.68 9.20191 81.628 9.30591 81.524C9.40991 81.4173 9.46191 81.2787 9.46191 81.108V81.08C9.46191 80.9653 9.43791 80.8627 9.38991 80.772C9.34191 80.6813 9.27657 80.6107 9.19391 80.56C9.11124 80.5093 9.02057 80.484 8.92191 80.484C8.75124 80.484 8.61924 80.54 8.52591 80.652C8.43257 80.7613 8.38591 80.904 8.38591 81.08C8.38591 81.2587 8.43124 81.404 8.52191 81.516C8.61524 81.6253 8.74857 81.68 8.92191 81.68ZM10.4868 80.164H10.9188V80.524C10.9615 80.4013 11.0308 80.3027 11.1268 80.228C11.2228 80.1533 11.3322 80.116 11.4548 80.116C11.5402 80.116 11.5988 80.124 11.6308 80.14L11.5708 80.576C11.5468 80.56 11.4948 80.552 11.4148 80.552C11.2895 80.552 11.1748 80.592 11.0708 80.672C10.9695 80.752 10.9188 80.88 10.9188 81.056V82H10.4868V80.164ZM12.7483 82.04C12.583 82.04 12.4297 82.0013 12.2883 81.924C12.1497 81.844 12.0377 81.732 11.9523 81.588C11.8697 81.4413 11.8283 81.2707 11.8283 81.076C11.8283 80.7853 11.9097 80.5533 12.0723 80.38C12.235 80.204 12.455 80.116 12.7323 80.116C12.887 80.116 13.0283 80.1547 13.1563 80.232C13.2843 80.3067 13.371 80.3973 13.4163 80.504L13.3963 80.192V79.06H13.8203V82H13.4083L13.4003 81.676C13.355 81.772 13.2723 81.8573 13.1523 81.932C13.0323 82.004 12.8977 82.04 12.7483 82.04ZM12.8203 81.676C12.9723 81.676 13.1003 81.624 13.2043 81.52C13.3083 81.4133 13.3603 81.2747 13.3603 81.104V81.076C13.3603 80.9613 13.3363 80.8587 13.2883 80.768C13.2403 80.6773 13.175 80.6067 13.0923 80.556C13.0097 80.5053 12.919 80.48 12.8203 80.48C12.6497 80.48 12.5177 80.536 12.4243 80.648C12.331 80.7573 12.2843 80.9 12.2843 81.076C12.2843 81.2547 12.3297 81.4 12.4203 81.512C12.5137 81.6213 12.647 81.676 12.8203 81.676Z" fill="white"/>
</svg>
